<svg xmlns="http://www.w3.org/2000/svg" width="400" height="400" viewBox="0 0 400 400" role="img">
<title>Illustrated avatar of a smiling person with long blonde hair on a mint background</title>
<defs><linearGradient id="bg" x1="0" y1="0" x2="1" y2="1"><stop offset="0" stop-color="#ccfbf1"/><stop offset="1" stop-color="#5eead4"/></linearGradient></defs>
<rect x="0" y="0" width="400" height="400" rx="0" fill="url(#bg)"/><circle cx="200" cy="214" r="160" fill="#ffffff" opacity=".35"/><g transform="translate(-30 -34.5) scale(1.15)"><path d="M110 330C88 220 106 92 200 88C294 92 312 220 290 330C262 346 138 346 110 330Z" fill="#d69e4a"/><path d="M58 400C58 330 112 290 200 290C288 290 342 330 342 400Z" fill="#0f766e"/><rect x="172" y="226" width="56" height="82" rx="24" fill="#dcaa7f"/><path d="M168 290Q200 336 232 290Z" fill="#dcaa7f"/><path d="M160 292Q200 344 240 292" stroke="#ffffff" stroke-opacity=".35" stroke-width="6" fill="none"/><ellipse cx="200" cy="182" rx="70" ry="80" fill="#f1c79f"/><circle cx="160" cy="218" r="13" fill="#fb7185" opacity=".22"/><circle cx="240" cy="218" r="13" fill="#fb7185" opacity=".22"/><ellipse cx="174" cy="192" rx="7" ry="8.5" fill="#1f2937"/><ellipse cx="226" cy="192" rx="7" ry="8.5" fill="#1f2937"/><circle cx="176.5" cy="189" r="2.4" fill="#ffffff"/><circle cx="228.5" cy="189" r="2.4" fill="#ffffff"/><path d="M160 170Q174 162 188 168M212 168Q226 162 240 170" stroke="#d69e4a" stroke-width="5" fill="none" stroke-linecap="round"/><path d="M200 198Q207 212 197 216" stroke="#dcaa7f" stroke-width="4" fill="none" stroke-linecap="round"/><path d="M180 228Q200 248 220 228Z" fill="#9f1239"/><path d="M184 229H216" stroke="#ffffff" stroke-width="3"/><path d="M128 200C120 128 158 94 204 94C250 96 284 130 274 204C262 166 236 138 196 132C172 150 150 170 128 200Z" fill="#d69e4a"/></g>
</svg>
