<svg xmlns="http://www.w3.org/2000/svg" width="400" height="400" viewBox="0 0 400 400" role="img">
<title>Illustrated avatar of a smiling person with a beard and glasses on a pale yellow background</title>
<defs><linearGradient id="bg" x1="0" y1="0" x2="1" y2="1"><stop offset="0" stop-color="#fef3c7"/><stop offset="1" stop-color="#fcd34d"/></linearGradient></defs>
<rect x="0" y="0" width="400" height="400" rx="0" fill="url(#bg)"/><circle cx="200" cy="214" r="160" fill="#ffffff" opacity=".35"/><g transform="translate(-30 -34.5) scale(1.15)"><path d="M58 400C58 330 112 290 200 290C288 290 342 330 342 400Z" fill="#334155"/><rect x="172" y="226" width="56" height="82" rx="24" fill="#a96d33"/><path d="M168 290Q200 336 232 290Z" fill="#a96d33"/><path d="M160 292Q200 344 240 292" stroke="#ffffff" stroke-opacity=".35" stroke-width="6" fill="none"/><ellipse cx="130" cy="192" rx="14" ry="19" fill="#c68642"/><ellipse cx="270" cy="192" rx="14" ry="19" fill="#c68642"/><ellipse cx="200" cy="182" rx="70" ry="80" fill="#c68642"/><circle cx="160" cy="218" r="13" fill="#fb7185" opacity=".22"/><circle cx="240" cy="218" r="13" fill="#fb7185" opacity=".22"/><ellipse cx="174" cy="192" rx="7" ry="8.5" fill="#1f2937"/><ellipse cx="226" cy="192" rx="7" ry="8.5" fill="#1f2937"/><circle cx="176.5" cy="189" r="2.4" fill="#ffffff"/><circle cx="228.5" cy="189" r="2.4" fill="#ffffff"/><path d="M160 170Q174 162 188 168M212 168Q226 162 240 170" stroke="#2b1a10" stroke-width="5" fill="none" stroke-linecap="round"/><path d="M200 198Q207 212 197 216" stroke="#a96d33" stroke-width="4" fill="none" stroke-linecap="round"/><path d="M131 192C134 266 168 292 200 292C232 292 266 266 269 192C258 222 238 236 224 234Q200 222 176 234C162 236 142 222 131 192Z" fill="#2b1a10"/><path d="M182 240Q200 252 218 240" stroke="#ffffff" stroke-width="5" fill="none" stroke-linecap="round" opacity=".9"/><path d="M132 200C128 180 130 166 136 152C140 170 140 186 140 204ZM268 200C272 180 270 166 264 152C260 170 260 186 260 204Z" fill="#2b1a10"/><g fill="#ffffff" fill-opacity=".15" stroke="#1f2937" stroke-width="5"><rect x="148" y="174" width="52" height="38" rx="14" fill="#ffffff"/><rect x="202" y="174" width="52" height="38" rx="14" fill="#ffffff"/></g><path d="M196 186Q201 182 206 186" stroke="#1f2937" stroke-width="5" fill="none"/></g>
</svg>
