<svg xmlns="http://www.w3.org/2000/svg" width="400" height="400" viewBox="0 0 400 400" role="img">
<title>Illustrated avatar of a smiling person with short dark-brown hair on a light blue background</title>
<defs><linearGradient id="bg" x1="0" y1="0" x2="1" y2="1"><stop offset="0" stop-color="#dbeafe"/><stop offset="1" stop-color="#93c5fd"/></linearGradient></defs>
<rect x="0" y="0" width="400" height="400" rx="0" fill="url(#bg)"/><circle cx="200" cy="214" r="160" fill="#ffffff" opacity=".35"/><g transform="translate(-30 -34.5) scale(1.15)"><path d="M58 400C58 330 112 290 200 290C288 290 342 330 342 400Z" fill="#2563eb"/><rect x="172" y="226" width="56" height="82" rx="24" fill="#e6b69b"/><path d="M168 290Q200 336 232 290Z" fill="#e6b69b"/><path d="M160 292Q200 344 240 292" stroke="#ffffff" stroke-opacity=".35" stroke-width="6" fill="none"/><ellipse cx="130" cy="192" rx="14" ry="19" fill="#f6d3bd"/><ellipse cx="270" cy="192" rx="14" ry="19" fill="#f6d3bd"/><ellipse cx="200" cy="182" rx="70" ry="80" fill="#f6d3bd"/><circle cx="160" cy="218" r="13" fill="#fb7185" opacity=".22"/><circle cx="240" cy="218" r="13" fill="#fb7185" opacity=".22"/><ellipse cx="174" cy="192" rx="7" ry="8.5" fill="#1f2937"/><ellipse cx="226" cy="192" rx="7" ry="8.5" fill="#1f2937"/><circle cx="176.5" cy="189" r="2.4" fill="#ffffff"/><circle cx="228.5" cy="189" r="2.4" fill="#ffffff"/><path d="M160 170Q174 162 188 168M212 168Q226 162 240 170" stroke="#3b2416" stroke-width="5" fill="none" stroke-linecap="round"/><path d="M200 198Q207 212 197 216" stroke="#e6b69b" stroke-width="4" fill="none" stroke-linecap="round"/><path d="M180 228Q200 248 220 228Z" fill="#9f1239"/><path d="M184 229H216" stroke="#ffffff" stroke-width="3"/><path d="M128 196C118 126 158 92 206 94C254 96 286 132 272 198C268 172 258 154 244 146C220 160 176 158 146 150C138 164 132 180 128 196Z" fill="#3b2416"/></g>
</svg>
