<svg xmlns="http://www.w3.org/2000/svg" width="1200" height="900" viewBox="0 0 1200 900" role="img">
<title>Illustration of a green sprout with three leaves in a terracotta pot</title>
<defs><linearGradient id="bg" x1="0" y1="0" x2="1" y2="1"><stop offset="0" stop-color="#f4fdf6"/><stop offset="1" stop-color="#dcfce7"/></linearGradient><filter id="sh" filterUnits="userSpaceOnUse" x="-10%" y="-10%" width="120%" height="130%"><feDropShadow dx="0" dy="18" stdDeviation="22" flood-color="#052e16" flood-opacity="0.2"/></filter><radialGradient id="gl"><stop offset="0" stop-color="#ffffff" stop-opacity="0.8"/><stop offset="0.6" stop-color="#ffffff" stop-opacity="0.3"/><stop offset="1" stop-color="#ffffff" stop-opacity="0"/></radialGradient><linearGradient id="lf" x1="0" y1="0" x2="1" y2="1"><stop offset="0" stop-color="#4ade80"/><stop offset="1" stop-color="#15803d"/></linearGradient><linearGradient id="lf2" x1="1" y1="0" x2="0" y2="1"><stop offset="0" stop-color="#86efac"/><stop offset="1" stop-color="#16a34a"/></linearGradient><linearGradient id="pot" x1="0" y1="0" x2="0" y2="1"><stop offset="0" stop-color="#e7a17a"/><stop offset="1" stop-color="#c2410c"/></linearGradient><radialGradient id="sun"><stop offset="0" stop-color="#fde047" stop-opacity="0.8"/><stop offset="0.6" stop-color="#fde047" stop-opacity="0.3"/><stop offset="1" stop-color="#fde047" stop-opacity="0"/></radialGradient></defs>
<rect x="0" y="0" width="1200" height="900" rx="0" fill="url(#bg)"/><circle cx="600" cy="430" r="420" fill="url(#gl)"/><path d="M945.6 450C952.6 527.4 910.6 643.1 853 703C795.4 763 680.7 813.5 600 809.8C519.3 806.2 421.1 741.1 368.9 681.1C316.7 621.1 284.8 524.7 287.1 450C289.4 375.3 330.6 282.1 382.7 232.7C434.9 183.4 528.6 152.9 600 153.9C671.4 154.9 753.7 189.4 811.3 238.7C868.9 288.1 938.6 372.6 945.6 450Z" fill="#bbf7d0" opacity=".55"/><g opacity="0.7"><circle cx="90" cy="90" r="3" fill="#86efac"/><circle cx="112" cy="90" r="3" fill="#86efac"/><circle cx="134" cy="90" r="3" fill="#86efac"/><circle cx="156" cy="90" r="3" fill="#86efac"/><circle cx="178" cy="90" r="3" fill="#86efac"/><circle cx="200" cy="90" r="3" fill="#86efac"/><circle cx="90" cy="112" r="3" fill="#86efac"/><circle cx="112" cy="112" r="3" fill="#86efac"/><circle cx="134" cy="112" r="3" fill="#86efac"/><circle cx="156" cy="112" r="3" fill="#86efac"/><circle cx="178" cy="112" r="3" fill="#86efac"/><circle cx="200" cy="112" r="3" fill="#86efac"/><circle cx="90" cy="134" r="3" fill="#86efac"/><circle cx="112" cy="134" r="3" fill="#86efac"/><circle cx="134" cy="134" r="3" fill="#86efac"/><circle cx="156" cy="134" r="3" fill="#86efac"/><circle cx="178" cy="134" r="3" fill="#86efac"/><circle cx="200" cy="134" r="3" fill="#86efac"/><circle cx="90" cy="156" r="3" fill="#86efac"/><circle cx="112" cy="156" r="3" fill="#86efac"/><circle cx="134" cy="156" r="3" fill="#86efac"/><circle cx="156" cy="156" r="3" fill="#86efac"/><circle cx="178" cy="156" r="3" fill="#86efac"/><circle cx="200" cy="156" r="3" fill="#86efac"/></g><g opacity="0.7"><circle cx="990" cy="700" r="3" fill="#86efac"/><circle cx="1012" cy="700" r="3" fill="#86efac"/><circle cx="1034" cy="700" r="3" fill="#86efac"/><circle cx="1056" cy="700" r="3" fill="#86efac"/><circle cx="1078" cy="700" r="3" fill="#86efac"/><circle cx="990" cy="722" r="3" fill="#86efac"/><circle cx="1012" cy="722" r="3" fill="#86efac"/><circle cx="1034" cy="722" r="3" fill="#86efac"/><circle cx="1056" cy="722" r="3" fill="#86efac"/><circle cx="1078" cy="722" r="3" fill="#86efac"/><circle cx="990" cy="744" r="3" fill="#86efac"/><circle cx="1012" cy="744" r="3" fill="#86efac"/><circle cx="1034" cy="744" r="3" fill="#86efac"/><circle cx="1056" cy="744" r="3" fill="#86efac"/><circle cx="1078" cy="744" r="3" fill="#86efac"/><circle cx="990" cy="766" r="3" fill="#86efac"/><circle cx="1012" cy="766" r="3" fill="#86efac"/><circle cx="1034" cy="766" r="3" fill="#86efac"/><circle cx="1056" cy="766" r="3" fill="#86efac"/><circle cx="1078" cy="766" r="3" fill="#86efac"/><circle cx="990" cy="788" r="3" fill="#86efac"/><circle cx="1012" cy="788" r="3" fill="#86efac"/><circle cx="1034" cy="788" r="3" fill="#86efac"/><circle cx="1056" cy="788" r="3" fill="#86efac"/><circle cx="1078" cy="788" r="3" fill="#86efac"/></g><circle cx="860" cy="230" r="170" fill="url(#sun)"/><circle cx="860" cy="230" r="64" fill="#fde68a"/><ellipse cx="600" cy="780" rx="220" ry="22" fill="#052e16" opacity=".1"/><path d="M600 640C596 560 560 480 520 420M600 640C606 560 640 470 700 400M600 640V330" stroke="#15803d" stroke-width="10" fill="none" stroke-linecap="round"/><g transform="translate(520 430) rotate(-48)"><path d="M0 0C95 -60 85.5 -192 0 -240C-85.5 -192 -95 -60 0 0Z" fill="url(#lf2)"/><path d="M0 -6V-220.8M0 -43.2Q33.3 -57.2 58.9 -83.2M0 -43.2Q-33.3 -57.2 -58.9 -83.2M0 -86.4Q33.3 -100.4 58.9 -126.4M0 -86.4Q-33.3 -100.4 -58.9 -126.4M0 -129.6Q33.3 -143.6 58.9 -169.6M0 -129.6Q-33.3 -143.6 -58.9 -169.6M0 -172.8Q33.3 -186.8 58.9 -212.8M0 -172.8Q-33.3 -186.8 -58.9 -212.8" fill="none" stroke="#ffffff" stroke-opacity=".45" stroke-width="4" stroke-linecap="round"/></g><g transform="translate(700 410) rotate(44)"><path d="M0 0C100 -65 90 -208 0 -260C-90 -208 -100 -65 0 0Z" fill="url(#lf)"/><path d="M0 -6V-239.2M0 -46.8Q35 -60.8 62 -86.8M0 -46.8Q-35 -60.8 -62 -86.8M0 -93.6Q35 -107.6 62 -133.6M0 -93.6Q-35 -107.6 -62 -133.6M0 -140.4Q35 -154.4 62 -180.4M0 -140.4Q-35 -154.4 -62 -180.4M0 -187.2Q35 -201.2 62 -227.2M0 -187.2Q-35 -201.2 -62 -227.2" fill="none" stroke="#ffffff" stroke-opacity=".45" stroke-width="4" stroke-linecap="round"/></g><g transform="translate(600 340) rotate(0)"><path d="M0 0C92 -57.5 82.8 -184 0 -230C-82.8 -184 -92 -57.5 0 0Z" fill="url(#lf)"/><path d="M0 -6V-211.6M0 -41.4Q32.2 -55.4 57 -81.4M0 -41.4Q-32.2 -55.4 -57 -81.4M0 -82.8Q32.2 -96.8 57 -122.8M0 -82.8Q-32.2 -96.8 -57 -122.8M0 -124.2Q32.2 -138.2 57 -164.2M0 -124.2Q-32.2 -138.2 -57 -164.2M0 -165.6Q32.2 -179.6 57 -205.6M0 -165.6Q-32.2 -179.6 -57 -205.6" fill="none" stroke="#ffffff" stroke-opacity=".45" stroke-width="4" stroke-linecap="round"/></g><path d="M470 630H730L700 780Q696 790 684 790H516Q504 790 500 780Z" fill="url(#pot)" filter="url(#sh)"/><rect x="452" y="610" width="296" height="46" rx="16" fill="#ea8a5c"/><circle cx="330" cy="290" r="10" fill="#4ade80"/><circle cx="370" cy="250" r="6" fill="#86efac"/><path d="M1000 502Q1004 516 1018 520Q1004 524 1000 538Q996 524 982 520Q996 516 1000 502Z" fill="#facc15"/><path d="M208 520H232M220 508V532" stroke="#4ade80" stroke-width="6" stroke-linecap="round"/>
</svg>
