<svg xmlns="http://www.w3.org/2000/svg" width="1600" height="900" viewBox="0 0 1600 900" role="img">
<title>Dark slate tech background with a glowing perspective grid and floating glass panels</title>
<defs><linearGradient id="bg" x1="0" y1="0" x2="1" y2="1"><stop offset="0" stop-color="#020617"/><stop offset="0.6" stop-color="#0f172a"/><stop offset="1" stop-color="#1e293b"/></linearGradient><radialGradient id="g1"><stop offset="0" stop-color="#38bdf8" stop-opacity="0.5"/><stop offset="0.6" stop-color="#38bdf8" stop-opacity="0.2"/><stop offset="1" stop-color="#38bdf8" stop-opacity="0"/></radialGradient><radialGradient id="g2"><stop offset="0" stop-color="#6366f1" stop-opacity="0.4"/><stop offset="0.6" stop-color="#6366f1" stop-opacity="0.2"/><stop offset="1" stop-color="#6366f1" stop-opacity="0"/></radialGradient><linearGradient id="fade" x1="0" y1="0" x2="0" y2="1"><stop offset="0" stop-color="#ffffff" stop-opacity="0"/><stop offset="1" stop-color="#ffffff" stop-opacity="1"/></linearGradient><mask id="fm"><rect x="0" y="560" width="1600" height="340" rx="0" fill="url(#fade)"/></mask><linearGradient id="glass" x1="0" y1="0" x2="1" y2="1"><stop offset="0" stop-color="#ffffff" stop-opacity="0.1"/><stop offset="1" stop-color="#ffffff" stop-opacity="0"/></linearGradient><radialGradient id="scrim" cx=".38" cy=".45" r=".6"><stop offset="0" stop-color="#020617" stop-opacity="0.4"/><stop offset="1" stop-color="#020617" stop-opacity="0"/></radialGradient></defs>
<rect x="0" y="0" width="1600" height="900" rx="0" fill="url(#bg)"/><circle cx="1180" cy="420" r="560" fill="url(#g1)"/><circle cx="220" cy="160" r="480" fill="url(#g2)"/><path d="M608 560L-1760 900M620 560L-1600 900M632 560L-1440 900M644 560L-1280 900M656 560L-1120 900M668 560L-960 900M680 560L-800 900M692 560L-640 900M704 560L-480 900M716 560L-320 900M728 560L-160 900M740 560L0 900M752 560L160 900M764 560L320 900M776 560L480 900M788 560L640 900M800 560L800 900M812 560L960 900M824 560L1120 900M836 560L1280 900M848 560L1440 900M860 560L1600 900M872 560L1760 900M884 560L1920 900M896 560L2080 900M908 560L2240 900M920 560L2400 900M932 560L2560 900M944 560L2720 900M956 560L2880 900M968 560L3040 900M980 560L3200 900M992 560L3360 900M0 580H1600M0 600H1600M0 628H1600M0 664H1600M0 712H1600M0 774H1600M0 852H1600" stroke="#38bdf8" stroke-opacity=".35" stroke-width="1.2" fill="none" mask="url(#fm)"/><rect x="1040" y="200" width="330" height="170" rx="18" fill="url(#glass)" stroke="#ffffff" stroke-opacity=".18"/><rect x="1064" y="224" width="148.5" height="12" rx="6" fill="#ffffff" opacity=".45"/><rect x="1064" y="246" width="99" height="10" rx="5" fill="#ffffff" opacity=".22"/><rect x="1064" y="330" width="282" height="14" rx="7" fill="#ffffff" opacity=".10"/><rect x="1064" y="330" width="174.8" height="14" rx="7" fill="#38bdf8" opacity=".85"/><rect x="1180" y="420" width="280" height="150" rx="18" fill="url(#glass)" stroke="#ffffff" stroke-opacity=".18"/><rect x="1204" y="444" width="126" height="12" rx="6" fill="#ffffff" opacity=".45"/><rect x="1204" y="466" width="84" height="10" rx="5" fill="#ffffff" opacity=".22"/><rect x="1204" y="530" width="232" height="14" rx="7" fill="#ffffff" opacity=".10"/><rect x="1204" y="530" width="143.8" height="14" rx="7" fill="#818cf8" opacity=".85"/><rect x="960" y="500" width="200" height="120" rx="18" fill="url(#glass)" stroke="#ffffff" stroke-opacity=".18"/><rect x="984" y="524" width="90" height="12" rx="6" fill="#ffffff" opacity=".45"/><rect x="984" y="546" width="60" height="10" rx="5" fill="#ffffff" opacity=".22"/><rect x="984" y="580" width="152" height="14" rx="7" fill="#ffffff" opacity=".10"/><rect x="984" y="580" width="94.2" height="14" rx="7" fill="#34d399" opacity=".85"/><circle cx="1370" cy="200" r="26" fill="#38bdf8" opacity=".9"/><circle cx="1370" cy="200" r="10" fill="#ffffff"/><rect x="0" y="0" width="1600" height="900" rx="0" fill="url(#scrim)"/><g opacity="0.2"><circle cx="100" cy="110" r="2" fill="#ffffff"/><circle cx="124" cy="110" r="2" fill="#ffffff"/><circle cx="148" cy="110" r="2" fill="#ffffff"/><circle cx="172" cy="110" r="2" fill="#ffffff"/><circle cx="196" cy="110" r="2" fill="#ffffff"/><circle cx="220" cy="110" r="2" fill="#ffffff"/><circle cx="100" cy="134" r="2" fill="#ffffff"/><circle cx="124" cy="134" r="2" fill="#ffffff"/><circle cx="148" cy="134" r="2" fill="#ffffff"/><circle cx="172" cy="134" r="2" fill="#ffffff"/><circle cx="196" cy="134" r="2" fill="#ffffff"/><circle cx="220" cy="134" r="2" fill="#ffffff"/><circle cx="100" cy="158" r="2" fill="#ffffff"/><circle cx="124" cy="158" r="2" fill="#ffffff"/><circle cx="148" cy="158" r="2" fill="#ffffff"/><circle cx="172" cy="158" r="2" fill="#ffffff"/><circle cx="196" cy="158" r="2" fill="#ffffff"/><circle cx="220" cy="158" r="2" fill="#ffffff"/><circle cx="100" cy="182" r="2" fill="#ffffff"/><circle cx="124" cy="182" r="2" fill="#ffffff"/><circle cx="148" cy="182" r="2" fill="#ffffff"/><circle cx="172" cy="182" r="2" fill="#ffffff"/><circle cx="196" cy="182" r="2" fill="#ffffff"/><circle cx="220" cy="182" r="2" fill="#ffffff"/></g>
</svg>
