<svg xmlns="http://www.w3.org/2000/svg" width="1600" height="900" viewBox="0 0 1600 900" role="img">
<title>Dark teal abstract background with glowing concentric rings and orbiting dots</title>
<defs><linearGradient id="bg" x1="0" y1="0" x2="1" y2="1"><stop offset="0" stop-color="#03211f"/><stop offset="0.6" stop-color="#134e4a"/><stop offset="1" stop-color="#115e59"/></linearGradient><radialGradient id="g1"><stop offset="0" stop-color="#2dd4bf" stop-opacity="0.6"/><stop offset="0.6" stop-color="#2dd4bf" stop-opacity="0.2"/><stop offset="1" stop-color="#2dd4bf" stop-opacity="0"/></radialGradient><radialGradient id="g2"><stop offset="0" stop-color="#5eead4" stop-opacity="0.2"/><stop offset="0.6" stop-color="#5eead4" stop-opacity="0.1"/><stop offset="1" stop-color="#5eead4" stop-opacity="0"/></radialGradient><radialGradient id="g3"><stop offset="0" stop-color="#0d9488" stop-opacity="0.6"/><stop offset="0.6" stop-color="#0d9488" stop-opacity="0.3"/><stop offset="1" stop-color="#0d9488" stop-opacity="0"/></radialGradient><radialGradient id="scrim" cx=".38" cy=".45" r=".6"><stop offset="0" stop-color="#03211f" stop-opacity="0.5"/><stop offset="1" stop-color="#03211f" stop-opacity="0"/></radialGradient></defs>
<rect x="0" y="0" width="1600" height="900" rx="0" fill="url(#bg)"/><circle cx="1260" cy="460" r="620" fill="url(#g3)"/><circle cx="1260" cy="460" r="260" fill="url(#g1)"/><circle cx="200" cy="120" r="420" fill="url(#g2)"/><g fill="none" stroke="#ffffff" stroke-width="1.5"><circle cx="1260" cy="460" r="108" stroke-opacity="0.2"/><circle cx="1260" cy="460" r="156" stroke-opacity="0.2"/><circle cx="1260" cy="460" r="204" stroke-opacity="0.2"/><circle cx="1260" cy="460" r="252" stroke-opacity="0.2"/><circle cx="1260" cy="460" r="300" stroke-opacity="0.2"/><circle cx="1260" cy="460" r="348" stroke-opacity="0.2"/><circle cx="1260" cy="460" r="396" stroke-opacity="0.2"/><circle cx="1260" cy="460" r="444" stroke-opacity="0.1"/><circle cx="1260" cy="460" r="492" stroke-opacity="0.1"/><circle cx="1260" cy="460" r="540" stroke-opacity="0.1"/><circle cx="1260" cy="460" r="588" stroke-opacity="0.1"/><circle cx="1260" cy="460" r="636" stroke-opacity="0.1"/><circle cx="1260" cy="460" r="684" stroke-opacity="0.1"/><circle cx="1260" cy="460" r="732" stroke-opacity="0.1"/><circle cx="1260" cy="460" r="780" stroke-opacity="0.1"/><circle cx="1260" cy="460" r="828" stroke-opacity="0"/><circle cx="1260" cy="460" r="876" stroke-opacity="0"/><circle cx="1260" cy="460" r="924" stroke-opacity="0"/></g><circle cx="1428.4" cy="575.2" r="7" fill="#5eead4"/><circle cx="1003.4" cy="695.1" r="7" fill="#a3e635"/><circle cx="977.2" cy="57.4" r="7" fill="#5eead4"/><circle cx="1612.6" cy="-69.3" r="7" fill="#a3e635"/><circle cx="1260" cy="460" r="46" fill="#5eead4" opacity=".9"/><circle cx="1260" cy="460" r="22" fill="#ffffff" opacity=".85"/><path d="M-40 822.2C-12 822 72 825.8 128 821.1C184 816.5 240 802 296 794.2C352 786.4 408 775.8 464 774.4C520 773 576 779.2 632 785.9C688 792.7 744 808.1 800 814.7C856 821.3 912 827.1 968 825.5C1024 823.8 1080 812.9 1136 805C1192 797.2 1248 782.9 1304 778.4C1360 774 1416 773.9 1472 778.3C1528 782.6 1612 800.3 1640 804.7L1640 900L-40 900Z" fill="#03211f" opacity=".55"/><rect x="0" y="0" width="1600" height="900" rx="0" fill="url(#scrim)"/><g opacity="0.2"><circle cx="90" cy="640" r="2" fill="#99f6e4"/><circle cx="114" cy="640" r="2" fill="#99f6e4"/><circle cx="138" cy="640" r="2" fill="#99f6e4"/><circle cx="162" cy="640" r="2" fill="#99f6e4"/><circle cx="186" cy="640" r="2" fill="#99f6e4"/><circle cx="210" cy="640" r="2" fill="#99f6e4"/><circle cx="234" cy="640" r="2" fill="#99f6e4"/><circle cx="258" cy="640" r="2" fill="#99f6e4"/><circle cx="282" cy="640" r="2" fill="#99f6e4"/><circle cx="306" cy="640" r="2" fill="#99f6e4"/><circle cx="90" cy="664" r="2" fill="#99f6e4"/><circle cx="114" cy="664" r="2" fill="#99f6e4"/><circle cx="138" cy="664" r="2" fill="#99f6e4"/><circle cx="162" cy="664" r="2" fill="#99f6e4"/><circle cx="186" cy="664" r="2" fill="#99f6e4"/><circle cx="210" cy="664" r="2" fill="#99f6e4"/><circle cx="234" cy="664" r="2" fill="#99f6e4"/><circle cx="258" cy="664" r="2" fill="#99f6e4"/><circle cx="282" cy="664" r="2" fill="#99f6e4"/><circle cx="306" cy="664" r="2" fill="#99f6e4"/><circle cx="90" cy="688" r="2" fill="#99f6e4"/><circle cx="114" cy="688" r="2" fill="#99f6e4"/><circle cx="138" cy="688" r="2" fill="#99f6e4"/><circle cx="162" cy="688" r="2" fill="#99f6e4"/><circle cx="186" cy="688" r="2" fill="#99f6e4"/><circle cx="210" cy="688" r="2" fill="#99f6e4"/><circle cx="234" cy="688" r="2" fill="#99f6e4"/><circle cx="258" cy="688" r="2" fill="#99f6e4"/><circle cx="282" cy="688" r="2" fill="#99f6e4"/><circle cx="306" cy="688" r="2" fill="#99f6e4"/><circle cx="90" cy="712" r="2" fill="#99f6e4"/><circle cx="114" cy="712" r="2" fill="#99f6e4"/><circle cx="138" cy="712" r="2" fill="#99f6e4"/><circle cx="162" cy="712" r="2" fill="#99f6e4"/><circle cx="186" cy="712" r="2" fill="#99f6e4"/><circle cx="210" cy="712" r="2" fill="#99f6e4"/><circle cx="234" cy="712" r="2" fill="#99f6e4"/><circle cx="258" cy="712" r="2" fill="#99f6e4"/><circle cx="282" cy="712" r="2" fill="#99f6e4"/><circle cx="306" cy="712" r="2" fill="#99f6e4"/><circle cx="90" cy="736" r="2" fill="#99f6e4"/><circle cx="114" cy="736" r="2" fill="#99f6e4"/><circle cx="138" cy="736" r="2" fill="#99f6e4"/><circle cx="162" cy="736" r="2" fill="#99f6e4"/><circle cx="186" cy="736" r="2" fill="#99f6e4"/><circle cx="210" cy="736" r="2" fill="#99f6e4"/><circle cx="234" cy="736" r="2" fill="#99f6e4"/><circle cx="258" cy="736" r="2" fill="#99f6e4"/><circle cx="282" cy="736" r="2" fill="#99f6e4"/><circle cx="306" cy="736" r="2" fill="#99f6e4"/><circle cx="90" cy="760" r="2" fill="#99f6e4"/><circle cx="114" cy="760" r="2" fill="#99f6e4"/><circle cx="138" cy="760" r="2" fill="#99f6e4"/><circle cx="162" cy="760" r="2" fill="#99f6e4"/><circle cx="186" cy="760" r="2" fill="#99f6e4"/><circle cx="210" cy="760" r="2" fill="#99f6e4"/><circle cx="234" cy="760" r="2" fill="#99f6e4"/><circle cx="258" cy="760" r="2" fill="#99f6e4"/><circle cx="282" cy="760" r="2" fill="#99f6e4"/><circle cx="306" cy="760" r="2" fill="#99f6e4"/></g>
</svg>
